<?xml version="1.0" encoding="utf-8"?>
<!-- Generator: Adobe Illustrator 23.0.6, SVG Export Plug-In . SVG Version: 6.00 Build 0)  -->
<svg version="1.2" baseProfile="tiny" id="Layer_1" xmlns="http://www.w3.org/2000/svg" xmlns:xlink="http://www.w3.org/1999/xlink"
	 x="0px" y="0px" viewBox="0 0 174.49 77.64" width="174.49px" height="77.64px" xml:space="preserve">
<g id="silkscreen">
	<text transform="matrix(1 0 0 1 52.0823 18.9893)" font-family="'Droid Sans'" font-size="12px">G</text>
	<text transform="matrix(1 0 0 1 59.8343 18.9893)" font-family="'Droid Sans'" font-size="12px">R</text>
	<text transform="matrix(1 0 0 1 66.2904 18.9893)" font-family="'Droid Sans'" font-size="12px">E</text>
	<text transform="matrix(1 0 0 1 72.2298 18.9893)" font-family="'Droid Sans'" font-size="12px">Y</text>
	<text transform="matrix(1 0 0 1 78.722 18.9893)" font-family="'Droid Sans'" font-size="12px"> </text>
	<text transform="matrix(1 0 0 1 81.2655 18.9893)" font-family="'Droid Sans'" font-size="12px">-</text>
	<text transform="matrix(1 0 0 1 84.9495 18.9893)" font-family="'Droid Sans'" font-size="12px"> </text>
	<text transform="matrix(1 0 0 1 87.4935 18.9893)" font-family="'Droid Sans'" font-size="12px">F</text>
	<text transform="matrix(1 0 0 1 93.3377 18.9893)" font-family="'Droid Sans'" font-size="12px">R</text>
	<text transform="matrix(1 0 0 1 99.8294 18.9893)" font-family="'Droid Sans'" font-size="12px">O</text>
	<text transform="matrix(1 0 0 1 108.0975 18.9893)" font-family="'Droid Sans'" font-size="12px">N</text>
	<text transform="matrix(1 0 0 1 115.993 18.9893)" font-family="'Droid Sans'" font-size="12px">T</text>
	<rect x="7.75" y="6.85" fill="none" stroke="#575756" stroke-miterlimit="10" width="159.37" height="62.52"/>
</g>
<g id="copper0">
	<g>
		<circle fill="none" cx="52.05" cy="26.7" r="2.63" stroke-width="2"/>
	</g>
	<path fill="#F9B233" d="M122.78,24.57c1.17,0,2.13,0.95,2.13,2.13s-0.95,2.13-2.13,2.13s-2.13-0.95-2.13-2.13
		S121.6,24.57,122.78,24.57 M122.78,23.57c-1.72,0-3.13,1.4-3.13,3.13c0,1.72,1.4,3.13,3.13,3.13c1.72,0,3.13-1.4,3.13-3.13
		C125.91,24.97,124.5,23.57,122.78,23.57L122.78,23.57z"/>
	<path fill="#F9B233" d="M111.01,24.57c1.17,0,2.13,0.95,2.13,2.13s-0.95,2.13-2.13,2.13s-2.13-0.95-2.13-2.13
		S109.84,24.57,111.01,24.57 M111.01,23.57c-1.72,0-3.13,1.4-3.13,3.13c0,1.72,1.4,3.13,3.13,3.13s3.13-1.4,3.13-3.13
		C114.14,24.97,112.74,23.57,111.01,23.57L111.01,23.57z"/>
	<path fill="#F9B233" d="M63.82,24.57c1.17,0,2.13,0.95,2.13,2.13s-0.95,2.13-2.13,2.13c-1.17,0-2.13-0.95-2.13-2.13
		S62.64,24.57,63.82,24.57 M63.82,23.57c-1.72,0-3.13,1.4-3.13,3.13c0,1.72,1.4,3.13,3.13,3.13c1.72,0,3.13-1.4,3.13-3.13
		C66.94,24.97,65.54,23.57,63.82,23.57L63.82,23.57z"/>
	<path fill="#F9B233" d="M73.26,24.57c1.17,0,2.13,0.95,2.13,2.13s-0.95,2.13-2.13,2.13s-2.13-0.95-2.13-2.13
		S72.08,24.57,73.26,24.57 M73.26,23.57c-1.72,0-3.13,1.4-3.13,3.13c0,1.72,1.4,3.13,3.13,3.13s3.13-1.4,3.13-3.13
		C76.38,24.97,74.98,23.57,73.26,23.57L73.26,23.57z"/>
	<path fill="#F9B233" d="M101.58,24.57c1.17,0,2.13,0.95,2.13,2.13s-0.95,2.13-2.13,2.13s-2.13-0.95-2.13-2.13
		S100.4,24.57,101.58,24.57 M101.58,23.57c-1.72,0-3.13,1.4-3.13,3.13c0,1.72,1.4,3.13,3.13,3.13s3.13-1.4,3.13-3.13
		C104.7,24.97,103.3,23.57,101.58,23.57L101.58,23.57z"/>
	<path fill="#F9B233" d="M82.7,24.57c1.17,0,2.13,0.95,2.13,2.13s-0.95,2.13-2.13,2.13c-1.17,0-2.13-0.95-2.13-2.13
		S81.52,24.57,82.7,24.57 M82.7,23.57c-1.72,0-3.13,1.4-3.13,3.13c0,1.72,1.4,3.13,3.13,3.13s3.13-1.4,3.13-3.13
		C85.82,24.97,84.42,23.57,82.7,23.57L82.7,23.57z"/>
	<path fill="#F9B233" d="M92.14,24.57c1.17,0,2.13,0.95,2.13,2.13s-0.95,2.13-2.13,2.13s-2.13-0.95-2.13-2.13
		S90.96,24.57,92.14,24.57 M92.14,23.57c-1.72,0-3.13,1.4-3.13,3.13c0,1.72,1.4,3.13,3.13,3.13c1.72,0,3.13-1.4,3.13-3.13
		C95.26,24.97,93.86,23.57,92.14,23.57L92.14,23.57z"/>
	<path fill="#F9B233" d="M52.05,48.38c1.17,0,2.13,0.95,2.13,2.13s-0.95,2.13-2.13,2.13s-2.13-0.95-2.13-2.13
		S50.88,48.38,52.05,48.38 M52.05,47.38c-1.72,0-3.13,1.4-3.13,3.13s1.4,3.13,3.13,3.13s3.13-1.4,3.13-3.13S53.78,47.38,52.05,47.38
		L52.05,47.38z"/>
	<path fill="#F9B233" d="M122.78,48.38c1.17,0,2.13,0.95,2.13,2.13s-0.95,2.13-2.13,2.13s-2.13-0.95-2.13-2.13
		S121.6,48.38,122.78,48.38 M122.78,47.38c-1.72,0-3.13,1.4-3.13,3.13s1.4,3.13,3.13,3.13c1.72,0,3.13-1.4,3.13-3.13
		S124.5,47.38,122.78,47.38L122.78,47.38z"/>
	<path fill="#F9B233" d="M111.01,48.38c1.17,0,2.13,0.95,2.13,2.13s-0.95,2.13-2.13,2.13s-2.13-0.95-2.13-2.13
		S109.84,48.38,111.01,48.38 M111.01,47.38c-1.72,0-3.13,1.4-3.13,3.13s1.4,3.13,3.13,3.13s3.13-1.4,3.13-3.13
		S112.74,47.38,111.01,47.38L111.01,47.38z"/>
	<path fill="#F9B233" d="M63.82,48.38c1.17,0,2.13,0.95,2.13,2.13s-0.95,2.13-2.13,2.13c-1.17,0-2.13-0.95-2.13-2.13
		S62.64,48.38,63.82,48.38 M63.82,47.38c-1.72,0-3.13,1.4-3.13,3.13s1.4,3.13,3.13,3.13c1.72,0,3.13-1.4,3.13-3.13
		S65.54,47.38,63.82,47.38L63.82,47.38z"/>
	<path fill="#F9B233" d="M73.26,48.38c1.17,0,2.13,0.95,2.13,2.13s-0.95,2.13-2.13,2.13s-2.13-0.95-2.13-2.13
		S72.08,48.38,73.26,48.38 M73.26,47.38c-1.72,0-3.13,1.4-3.13,3.13s1.4,3.13,3.13,3.13s3.13-1.4,3.13-3.13S74.98,47.38,73.26,47.38
		L73.26,47.38z"/>
	<path fill="#F9B233" d="M101.58,48.38c1.17,0,2.13,0.95,2.13,2.13s-0.95,2.13-2.13,2.13s-2.13-0.95-2.13-2.13
		S100.4,48.38,101.58,48.38 M101.58,47.38c-1.72,0-3.13,1.4-3.13,3.13s1.4,3.13,3.13,3.13s3.13-1.4,3.13-3.13
		S103.3,47.38,101.58,47.38L101.58,47.38z"/>
	<path fill="#F9B233" d="M82.7,48.38c1.17,0,2.13,0.95,2.13,2.13s-0.95,2.13-2.13,2.13c-1.17,0-2.13-0.95-2.13-2.13
		S81.52,48.38,82.7,48.38 M82.7,47.38c-1.72,0-3.13,1.4-3.13,3.13s1.4,3.13,3.13,3.13s3.13-1.4,3.13-3.13S84.42,47.38,82.7,47.38
		L82.7,47.38z"/>
	<path fill="#F9B233" d="M92.14,48.38c1.17,0,2.13,0.95,2.13,2.13s-0.95,2.13-2.13,2.13s-2.13-0.95-2.13-2.13
		S90.96,48.38,92.14,48.38 M92.14,47.38c-1.72,0-3.13,1.4-3.13,3.13s1.4,3.13,3.13,3.13c1.72,0,3.13-1.4,3.13-3.13
		S93.86,47.38,92.14,47.38L92.14,47.38z"/>
	<path fill="#F9B233" d="M52.05,36.48c1.17,0,2.13,0.95,2.13,2.13s-0.95,2.13-2.13,2.13s-2.13-0.95-2.13-2.13
		S50.88,36.48,52.05,36.48 M52.05,35.47c-1.72,0-3.13,1.4-3.13,3.13s1.4,3.13,3.13,3.13s3.13-1.4,3.13-3.13S53.78,35.47,52.05,35.47
		L52.05,35.47z"/>
	<path fill="#F9B233" d="M122.78,36.48c1.17,0,2.13,0.95,2.13,2.13s-0.95,2.13-2.13,2.13s-2.13-0.95-2.13-2.13
		S121.6,36.48,122.78,36.48 M122.78,35.47c-1.72,0-3.13,1.4-3.13,3.13s1.4,3.13,3.13,3.13c1.72,0,3.13-1.4,3.13-3.13
		S124.5,35.47,122.78,35.47L122.78,35.47z"/>
	<path fill="#F9B233" d="M111.01,36.48c1.17,0,2.13,0.95,2.13,2.13s-0.95,2.13-2.13,2.13s-2.13-0.95-2.13-2.13
		S109.84,36.48,111.01,36.48 M111.01,35.47c-1.72,0-3.13,1.4-3.13,3.13s1.4,3.13,3.13,3.13s3.13-1.4,3.13-3.13
		S112.74,35.47,111.01,35.47L111.01,35.47z"/>
	<path fill="#F9B233" d="M63.82,36.48c1.17,0,2.13,0.95,2.13,2.13s-0.95,2.13-2.13,2.13c-1.17,0-2.13-0.95-2.13-2.13
		S62.64,36.48,63.82,36.48 M63.82,35.47c-1.72,0-3.13,1.4-3.13,3.13s1.4,3.13,3.13,3.13c1.72,0,3.13-1.4,3.13-3.13
		S65.54,35.47,63.82,35.47L63.82,35.47z"/>
	<path fill="#F9B233" d="M73.26,36.48c1.17,0,2.13,0.95,2.13,2.13s-0.95,2.13-2.13,2.13s-2.13-0.95-2.13-2.13
		S72.08,36.48,73.26,36.48 M73.26,35.47c-1.72,0-3.13,1.4-3.13,3.13s1.4,3.13,3.13,3.13s3.13-1.4,3.13-3.13S74.98,35.47,73.26,35.47
		L73.26,35.47z"/>
	<path fill="#F9B233" d="M101.58,36.48c1.17,0,2.13,0.95,2.13,2.13s-0.95,2.13-2.13,2.13s-2.13-0.95-2.13-2.13
		S100.4,36.48,101.58,36.48 M101.58,35.47c-1.72,0-3.13,1.4-3.13,3.13s1.4,3.13,3.13,3.13s3.13-1.4,3.13-3.13
		S103.3,35.47,101.58,35.47L101.58,35.47z"/>
	<path fill="#F9B233" d="M82.7,36.48c1.17,0,2.13,0.95,2.13,2.13s-0.95,2.13-2.13,2.13c-1.17,0-2.13-0.95-2.13-2.13
		S81.52,36.48,82.7,36.48 M82.7,35.47c-1.72,0-3.13,1.4-3.13,3.13s1.4,3.13,3.13,3.13s3.13-1.4,3.13-3.13S84.42,35.47,82.7,35.47
		L82.7,35.47z"/>
	<path fill="#F9B233" d="M92.14,36.48c1.17,0,2.13,0.95,2.13,2.13s-0.95,2.13-2.13,2.13s-2.13-0.95-2.13-2.13
		S90.96,36.48,92.14,36.48 M92.14,35.47c-1.72,0-3.13,1.4-3.13,3.13s1.4,3.13,3.13,3.13c1.72,0,3.13-1.4,3.13-3.13
		S93.86,35.47,92.14,35.47L92.14,35.47z"/>
	<path fill="#F9B233" d="M33.09,40.3v10.2h-6.52V40.3H33.09 M34.09,39.3h-1h-6.52h-1v1v10.2v1h1h6.52h1v-1V40.3V39.3L34.09,39.3z"/>
	<path fill="#F9B233" d="M148.74,36.05v14.46h-6.52V36.05H148.74 M149.74,35.05h-1h-6.52h-1v1v14.46v1h1h6.52h1v-1V36.05V35.05
		L149.74,35.05z"/>
</g>
</svg>
