<?xml version="1.0" encoding="utf-8"?>
<!-- Generator: Adobe Illustrator 23.0.6, SVG Export Plug-In . SVG Version: 6.00 Build 0)  -->
<svg version="1.2" baseProfile="tiny" id="Layer_1" xmlns="http://www.w3.org/2000/svg" xmlns:xlink="http://www.w3.org/1999/xlink"
	 x="0px" y="0px" viewBox="0 0 52.78 63.72" width="52.78px" height="63.72px" xml:space="preserve">
<g id="silkscreen">
	
		<rect x="2.07" y="3.83" fill="none" stroke="#878787" stroke-width="0.5669" stroke-miterlimit="10" width="48.26" height="55.56"/>
	<circle fill="none" stroke="#878787" stroke-width="0.5669" stroke-miterlimit="10" cx="6.9" cy="52.03" r="1.96"/>
</g>
<g id="copper1">
	<rect x="5.96" y="15.51" fill="#F9B233" width="17.66" height="14.88" stroke-width="0"/>
	<rect x="29.57" y="15.51" fill="#F9B233" width="17.66" height="14.88" stroke-width="0"/>
	<rect x="6.11" y="1.82" fill="#F9B233" width="1.93" height="5.98" stroke-width="0"/>
	<rect x="8.92" y="1.82" fill="#F9B233" width="1.93" height="5.98" stroke-width="0"/>
	<rect x="11.72" y="1.82" fill="#F9B233" width="1.93" height="5.98" stroke-width="0"/>
	<rect x="14.53" y="1.82" fill="#F9B233" width="1.93" height="5.98" stroke-width="0"/>
	<rect x="17.34" y="1.82" fill="#F9B233" width="1.93" height="5.98" stroke-width="0"/>
	<rect x="20.14" y="1.82" fill="#F9B233" width="1.93" height="5.98" stroke-width="0"/>
	<rect x="28.4" y="1.81" fill="#F9B233" width="1.84" height="5.98" stroke-width="0"/>
	<rect x="31.12" y="1.8" fill="#F9B233" width="1.84" height="5.98" stroke-width="0"/>
	<rect x="33.85" y="1.82" fill="#F9B233" width="1.84" height="5.98" stroke-width="0"/>
	<rect x="36.59" y="1.82" fill="#F9B233" width="1.84" height="5.98" stroke-width="0"/>
	<rect x="39.32" y="1.82" fill="#F9B233" width="1.84" height="5.98" stroke-width="0"/>
	<rect x="42.04" y="1.82" fill="#F9B233" width="1.84" height="5.98" stroke-width="0"/>
	<rect x="44.77" y="1.82" fill="#F9B233" width="1.84" height="5.98" stroke-width="0"/>
	<rect x="11.96" y="32.8" fill="#F9B233" width="29.2" height="14.88" stroke-width="0"/>
	<rect x="22.95" y="1.82" fill="#F9B233" width="1.84" height="5.98" stroke-width="0"/>
	<rect x="25.68" y="1.81" fill="#F9B233" width="1.84" height="5.98" stroke-width="0"/>
	<rect x="6.11" y="55.42" fill="#F9B233" width="1.93" height="5.98" stroke-width="0"/>
	<rect x="8.92" y="55.42" fill="#F9B233" width="1.93" height="5.98" stroke-width="0"/>
	<rect x="11.72" y="55.42" fill="#F9B233" width="1.93" height="5.98" stroke-width="0"/>
	<rect x="14.53" y="55.42" fill="#F9B233" width="1.93" height="5.98" stroke-width="0"/>
	<rect x="17.34" y="55.42" fill="#F9B233" width="1.93" height="5.98" stroke-width="0"/>
	<rect x="20.14" y="55.42" fill="#F9B233" width="1.93" height="5.98" stroke-width="0"/>
	<rect x="28.4" y="55.42" fill="#F9B233" width="1.84" height="5.98" stroke-width="0"/>
	<rect x="31.12" y="55.41" fill="#F9B233" width="1.84" height="5.98" stroke-width="0"/>
	<rect x="33.85" y="55.42" fill="#F9B233" width="1.84" height="5.98" stroke-width="0"/>
	<rect x="36.59" y="55.42" fill="#F9B233" width="1.84" height="5.98" stroke-width="0"/>
	<rect x="39.32" y="55.42" fill="#F9B233" width="1.84" height="5.98" stroke-width="0"/>
	<rect x="42.04" y="55.42" fill="#F9B233" width="1.84" height="5.98" stroke-width="0"/>
	<rect x="44.77" y="55.42" fill="#F9B233" width="1.84" height="5.98" stroke-width="0"/>
	<rect x="22.95" y="55.42" fill="#F9B233" width="1.84" height="5.98" stroke-width="0"/>
	<rect x="25.68" y="55.42" fill="#F9B233" width="1.84" height="5.98" stroke-width="0"/>
	 </g>
</svg>
