<?xml version="1.0" encoding="utf-8"?>
<!-- Generator: Adobe Illustrator 23.0.6, SVG Export Plug-In . SVG Version: 6.00 Build 0)  -->
<svg version="1.2" baseProfile="tiny" id="Layer_1" xmlns="http://www.w3.org/2000/svg" xmlns:xlink="http://www.w3.org/1999/xlink"
	 x="0px" y="0px" width="29.76px" height="29.76px" viewBox="0 0 29.76 29.76" xml:space="preserve">
<g id="silkscreen">
	<path fill="none" stroke="#B3B3B3" stroke-width="0.2835" stroke-miterlimit="10" d="M27.11,5.13c-0.41,0-0.75,0.34-0.75,0.75
		s0.34,0.75,0.75,0.75s0.75-0.34,0.75-0.75C27.86,5.47,27.53,5.13,27.11,5.13L27.11,5.13z"/>
	<line fill="none" stroke="#B3B3B3" stroke-width="0.2835" stroke-miterlimit="10" x1="0" y1="25.65" x2="0" y2="4.11"/>
	<line fill="none" stroke="#B3B3B3" stroke-width="0.2835" stroke-miterlimit="10" x1="29.76" y1="4.11" x2="29.76" y2="25.65"/>
	<line fill="none" stroke="#B3B3B3" stroke-width="0.2835" stroke-miterlimit="10" x1="0" y1="4.11" x2="29.76" y2="4.11"/>
	<line fill="none" stroke="#B3B3B3" stroke-width="0.2835" stroke-miterlimit="10" x1="29.76" y1="25.65" x2="0" y2="25.65"/>
</g>
<g id="copper1">
	<rect x="2.75" fill="#F7BD13" width="0.71" height="4.11" stroke-width="0" />
	<rect x="4.17" fill="#F7BD13" width="0.71" height="4.11" stroke-width="0" />
	<rect x="5.58" fill="#F7BD13" width="0.71" height="4.11" stroke-width="0" />
	<rect x="7" fill="#F7BD13" width="0.71" height="4.11" stroke-width="0" />
	<rect x="8.42" fill="#F7BD13" width="0.71" height="4.11" stroke-width="0" />
	<rect x="9.84" fill="#F7BD13" width="0.71" height="4.11" stroke-width="0" />
	<rect x="11.25" fill="#F7BD13" width="0.71" height="4.11" stroke-width="0" />
	<rect x="12.67" fill="#F7BD13" width="0.71" height="4.11" stroke-width="0" />
	<rect x="14.09" fill="#F7BD13" width="0.71" height="4.11" stroke-width="0" />
	<rect x="15.51" fill="#F7BD13" width="0.71" height="4.11" stroke-width="0" />
	<rect x="16.92" fill="#F7BD13" width="0.71" height="4.11" stroke-width="0" />
	<rect x="18.34" fill="#F7BD13" width="0.71" height="4.11" stroke-width="0" />
	<rect x="19.76" fill="#F7BD13" width="0.71" height="4.11" stroke-width="0" />
	<rect x="21.17" fill="#F7BD13" width="0.71" height="4.11" stroke-width="0" />
	<rect x="22.59" fill="#F7BD13" width="0.71" height="4.11" stroke-width="0" />
	<rect x="24.01" fill="#F7BD13" width="0.71" height="4.11" stroke-width="0" />
	<rect x="25.43" fill="#F7BD13" width="0.71" height="4.11" stroke-width="0" />
	<rect x="26.84" fill="#F7BD13" width="0.71" height="4.11" stroke-width="0" />
	<rect x="2.75" y="25.65" fill="#F7BD13" width="0.71" height="4.11" stroke-width="0" />
	<rect x="4.17" y="25.65" fill="#F7BD13" width="0.71" height="4.11" stroke-width="0" />
	<rect x="5.58" y="25.65" fill="#F7BD13" width="0.71" height="4.11" stroke-width="0" />
	<rect x="7" y="25.65" fill="#F7BD13" width="0.71" height="4.11" stroke-width="0" />
	<rect x="8.42" y="25.65" fill="#F7BD13" width="0.71" height="4.11" stroke-width="0" />
	<rect x="9.84" y="25.65" fill="#F7BD13" width="0.71" height="4.11" stroke-width="0" />
	<rect x="11.25" y="25.65" fill="#F7BD13" width="0.71" height="4.11" stroke-width="0" />
	<rect x="12.67" y="25.65" fill="#F7BD13" width="0.71" height="4.11" stroke-width="0" />
	<rect x="14.09" y="25.65" fill="#F7BD13" width="0.71" height="4.11" stroke-width="0" />
	<rect x="15.51" y="25.65" fill="#F7BD13" width="0.71" height="4.11" stroke-width="0" />
	<rect x="16.92" y="25.65" fill="#F7BD13" width="0.71" height="4.11" stroke-width="0" />
	<rect x="18.34" y="25.65" fill="#F7BD13" width="0.71" height="4.11" stroke-width="0" />
	<rect x="19.76" y="25.65" fill="#F7BD13" width="0.71" height="4.11" stroke-width="0" />
	<rect x="21.17" y="25.65" fill="#F7BD13" width="0.71" height="4.11" stroke-width="0" />
	<rect x="22.59" y="25.65" fill="#F7BD13" width="0.71" height="4.11" stroke-width="0" />
	<rect x="24.01" y="25.65" fill="#F7BD13" width="0.71" height="4.11" stroke-width="0" />
	<rect x="25.43" y="25.65" fill="#F7BD13" width="0.71" height="4.11" stroke-width="0" />
	<rect x="26.84" y="25.65" fill="#F7BD13" width="0.71" height="4.11" stroke-width="0" />
	<rect x="3.83" y="7.51" fill="#F7BD13" width="9.92" height="14.74" stroke-width="0" />
	<rect x="16.02" y="7.09" fill="#F7BD13" width="9.92" height="6.66" stroke-width="0" />
	<rect x="16.02" y="16.02" fill="#F7BD13" width="9.92" height="6.66" stroke-width="0" />
</g>
</svg>
